# Blender v2.81 (sub 16) OBJ File: 'building.blend'
# www.blender.org
mtllib videoFrame.mtl
o Frame_Cube.001
v -0.113479 -1.307287 2.176686
v -0.113479 1.317285 2.176686
v -0.113479 -1.307287 1.900216
v -0.113479 1.317285 1.900216
v 0.113478 -1.307287 2.176686
v 0.113478 1.317285 2.176686
v 0.113478 -1.307287 1.900216
v 0.113478 1.317285 1.900216
v -0.113479 1.075929 2.176686
v -0.113479 1.075929 1.900216
v 0.113478 1.075929 1.900216
v 0.113478 1.075929 2.176686
v -0.113479 -1.085929 1.900216
v 0.113478 -1.085929 1.900216
v 0.113478 -1.085929 2.176686
v -0.113479 -1.085929 2.176686
v -0.113479 -1.085929 -2.216071
v -0.113479 -1.307287 -2.216071
v 0.113478 -1.307287 -2.216071
v -0.113479 1.317285 -2.216071
v 0.113478 1.317285 -2.216071
v 0.113478 -1.085929 -2.216071
v -0.113479 1.075929 -2.216071
v 0.113478 1.075929 -2.216071
v -0.113479 1.317285 -1.940224
v -0.113479 1.075929 -1.940224
v 0.113478 1.075929 -1.940224
v 0.113478 1.317285 -1.940224
v 0.113478 -1.307287 -1.939593
v 0.113478 -1.085929 -1.939593
v -0.113479 -1.307287 -1.939593
v -0.113479 -1.085929 -1.939593
vt 0.605000 0.000000
vt 0.625000 0.000000
vt 0.625000 0.250000
vt 0.605000 0.250000
vt 0.375000 0.500000
vt 0.125000 0.500000
vt 0.125000 0.500000
vt 0.375000 0.500000
vt 0.605000 0.500000
vt 0.625000 0.500000
vt 0.625000 0.750000
vt 0.605000 0.750000
vt 0.625000 1.000000
vt 0.605000 1.000000
vt 0.125000 0.500000
vt 0.375000 0.500000
vt 0.375000 0.750000
vt 0.125000 0.750000
vt 0.875000 0.500000
vt 0.875000 0.750000
vt 0.393400 0.750000
vt 0.393400 1.000000
vt 0.393400 0.500000
vt 0.393400 0.250000
vt 0.393400 0.000000
vt 0.375000 0.000000
vt 0.375000 0.250000
vt 0.393400 0.500000
vt 0.393400 0.500000
vt 0.375000 1.000000
vt 0.605000 0.250000
vt 0.625000 0.250000
vt 0.625000 0.500000
vt 0.605000 0.500000
vt 0.375000 0.250000
vt 0.393400 0.250000
vt 0.605000 0.250000
vt 0.625000 0.250000
vt 0.875000 0.500000
vt 0.625000 0.500000
vt 0.875000 0.500000
vt 0.605000 0.500000
vt 0.375000 0.250000
vt 0.393400 0.250000
vt 0.000000 0.000000
vt 0.000000 0.000000
vt 0.000000 0.000000
vt 0.000000 0.000000
vn -1.0000 0.0000 0.0000
vn 0.0000 -1.0000 0.0000
vn 1.0000 0.0000 0.0000
vn 0.0000 0.0000 1.0000
vn 0.0000 1.0000 0.0000
vn 0.0000 0.0000 -1.0000
vn 0.0000 0.0003 1.0000
usemtl Material
s off
f 9/1/1 2/2/1 4/3/1 10/4/1
f 29/5/2 31/6/2 18/7/2 19/8/2
f 11/9/3 8/10/3 6/11/3 12/12/3
f 12/12/4 6/11/4 2/13/4 9/14/4
f 3/15/2 7/16/2 5/17/2 1/18/2
f 8/10/5 4/19/5 2/20/5 6/11/5
f 15/21/4 12/12/4 9/14/4 16/22/4
f 14/23/3 11/9/3 12/12/3 15/21/3
f 13/24/6 10/4/6 11/9/6 14/23/6
f 16/25/1 9/1/1 10/4/1 13/24/1
f 1/26/1 16/25/1 13/24/1 3/27/1
f 30/28/3 29/5/3 19/8/3 22/29/3
f 7/16/3 14/23/3 15/21/3 5/17/3
f 5/17/4 15/21/4 16/22/4 1/30/4
f 23/31/6 20/32/6 21/33/6 24/34/6
f 18/35/6 17/36/6 22/29/6 19/8/6
f 26/37/1 25/38/1 20/32/1 23/31/1
f 25/39/5 28/40/5 21/33/5 20/41/5
f 28/40/3 27/42/3 24/34/3 21/33/3
f 31/43/1 32/44/1 17/36/1 18/35/1
f 8/10/3 11/9/3 27/42/3 28/40/3
f 4/19/5 8/10/5 28/40/5 25/39/5
f 10/4/1 4/3/1 25/38/1 26/37/1
f 3/27/1 13/24/1 32/44/1 31/43/1
f 13/24/5 14/23/5 30/28/5 32/44/5
f 14/23/3 7/16/3 29/5/3 30/28/3
f 7/16/2 3/15/2 31/6/2 29/5/2
f 26/37/7 32/44/7 30/28/7 27/42/7
f 23/31/1 17/36/1 32/44/1 26/37/1
f 24/34/3 27/42/3 30/28/3 22/29/3
f 24/34/6 22/29/6 17/36/6 23/31/6
f 27/45/2 11/46/2 10/47/2 26/48/2
